<svg width="32" height="48" viewBox="0 0 32 48" fill="none" xmlns="http://www.w3.org/2000/svg">
<path d="M30.8271 5.22206C30.4143 4.58987 29.8112 4.57171 29.124 4.55102C29.0461 4.54868 28.9672 4.5463 28.8873 4.54299C28.8265 4.54019 28.7594 4.54127 28.6892 4.5424C28.4105 4.54688 28.0845 4.55211 27.9203 4.31793C27.7298 4.04642 27.7479 3.52173 27.7628 3.08857C27.7675 2.9517 27.7719 2.82388 27.7693 2.71617C27.7426 1.70995 27.6868 0.641082 27.2983 0.283761C27.0054 0.0156694 26.1292 0.05281 25.3211 0.0870625C25.0591 0.0981662 24.8043 0.108966 24.5788 0.108966H7.37785C7.03152 0.108966 6.66848 0.0807659 6.31179 0.0530574C5.61674 -0.000934085 4.94574 -0.0530572 4.46925 0.108966C3.77773 0.345258 3.73091 1.58692 3.68682 2.75613L3.68444 2.81904C3.64742 3.78427 3.40822 4.52907 2.61543 4.45405C1.69336 4.3682 0.775846 4.34113 0.358949 5.17565C-0.133416 6.16303 -0.0318709 7.1966 0.150011 9.04788C0.175992 9.31233 0.203612 9.59346 0.231375 9.89352H31.0931C31.1107 9.6742 31.1295 9.45769 31.148 9.24468C31.2925 7.5791 31.4185 6.1279 30.8271 5.22206Z" fill="#8047F8"/>
<path fill-rule="evenodd" clip-rule="evenodd" d="M2.63479 11.7296C3.11679 18.2531 3.59353 24.7841 4.07028 31.3151L4.07057 31.3191C4.32943 34.8653 4.58829 38.4115 4.84799 41.9565H5.83271C5.89981 42.5114 5.97659 43.1965 6.05754 43.9187C6.22186 45.3849 6.4034 47.0047 6.55602 48H6.66493C7.66795 47.633 14.602 44.6691 14.6051 32.8693C14.6038 32.8357 14.6049 32.802 14.6084 32.7686H12.8953C12.8124 32.7679 12.732 32.7402 12.6665 32.6898C12.6011 32.6395 12.5541 32.5693 12.533 32.49C12.366 32.0776 12.2314 31.6532 12.1304 31.2204C11.1226 31.7896 10.3223 32.6587 9.8435 33.7039C9.38904 32.6334 9.32956 31.4391 9.67545 30.3297C10.0213 29.2203 10.7506 28.2662 11.7358 27.6344C11.7485 24.1912 13.0377 20.872 15.3593 18.3052L15.3956 18.2733C15.463 18.215 15.5494 18.1825 15.639 18.1818C15.6908 18.1822 15.742 18.1933 15.7893 18.2143C15.8371 18.2356 15.88 18.2665 15.9149 18.3052C18.2637 20.8755 19.5461 24.2266 19.5063 27.6901C20.5099 28.3044 21.254 29.2577 21.6005 30.3731C21.947 31.4886 21.8724 32.6905 21.3905 33.7557C20.9143 32.7088 20.1134 31.8389 19.1036 31.2721C19.042 31.6916 18.9284 32.1019 18.7654 32.494C18.7091 32.6612 18.5963 32.7686 18.4836 32.7686H16.6567C16.6596 32.7886 16.6616 32.8088 16.6628 32.8289L16.6635 32.8336V32.8433C16.6641 32.8607 16.6642 32.8781 16.6635 32.8955C16.6885 45.0341 24.0609 47.7893 24.6824 48H24.8949C24.9492 47.0439 25.1258 45.7247 25.298 44.4385C25.4167 43.5522 25.5333 42.6816 25.6063 41.9565H26.6024C26.9212 37.4912 27.2491 33.0383 27.577 28.5854L27.5772 28.583L27.5773 28.5817C27.9968 22.8859 28.4162 17.1899 28.8167 11.4674H2.69858C2.6234 11.4821 2.62853 11.6051 2.63479 11.7296ZM15.639 18.1818L15.6371 18.1818H15.6412L15.639 18.1818Z" fill="#8047F8"/>
</svg>
